<?xml version="1.0" encoding="iso-8859-1"?><!DOCTYPE svg PUBLIC "-//W3C//DTD SVG 1.1//EN" "http://www.w3.org/Graphics/SVG/1.1/DTD/svg11.dtd"><svg width="1431" height="1024" viewBox="0 0 1431 1024" xmlns="http://www.w3.org/2000/svg" xmlns:xlink="http://www.w3.org/1999/xlink"><svg viewBox="0 0 512 512" width="512" height="512" id="drop" xmlns="http://www.w3.org/2000/svg"><path d="M438.4 329.6C438.4 430.933 356.267 512 256 512S73.6 430.933 73.6 329.6 256 0 256 0s182.4 229.333 182.4 329.6z" fill="#84dbff"/><path d="M256 464c-73.6 0-134.4-59.733-134.4-134.4 0-8.533 7.467-16 16-16s16 7.467 16 16c0 56.533 45.867 102.4 102.4 102.4 8.533 0 16 7.467 16 16s-7.467 16-16 16z" fill="#fff"/></svg><svg viewBox="0 0 505.174 505.174" width="505.17" height="505.17" id="globe" x="512" y="512" xmlns="http://www.w3.org/2000/svg"><g transform="translate(7 1)"><circle cx="261.8" cy="218.307" r="213.333" fill="#80d6fa"/><path d="M271.187 353.987c7.68 7.68 14.507 22.187 7.68 29.013-7.68 7.68-22.187 7.68-29.013 0-11.094-10.24 14.506-36.693 21.333-29.013zM408.573 234.52c14.507 14.507-14.507 22.187-22.187 44.373-7.68 22.187-36.693 22.187-44.373 14.507-7.68-7.68-22.187-14.507-36.693-22.187-14.507-7.68 0-22.187 14.507-14.507 14.507 7.68 20.48-22.187 36.693-22.187 8.534.001 37.547-14.505 52.053.001zM342.867 22.894c60.587 24.747 107.52 76.8 125.44 141.653C441 175.64 397.48 181.614 387.24 176.494c-14.507-7.68-14.507-44.373-40.96-45.227-10.24-.853-22.187 44.373-36.693 51.2-14.507 7.68-22.187-22.187-36.693-44.373S295.08 93.72 309.587 93.72c14.507 0 14.507-36.693 14.507-44.373s-14.507-16.213-10.24-36.693l29.013 10.24zM261.8 433.347c-25.6 0-51.2-5.973-51.2-5.973-93.013-23.04-162.133-106.667-162.133-207.36 0-8.533 0-16.213 1.707-24.747 27.307-1.707 59.733 3.413 49.493 13.653-14.507 14.507-7.68 73.387 22.187 51.2 29.867-22.187 44.373-51.2 36.693-73.387-7.68-22.187 51.2-29.867 51.2 7.68s-14.507 29.867-22.187 51.2c-7.68 22.187 7.68 22.187 14.507 29.013 7.68 7.68 29.013 22.187 7.68 73.387-16.214 39.254 23.893 67.414 52.053 85.334z" fill="#50dd8e"/></g><path d="M268.8 505.174c-2.56 0-4.267-1.707-4.267-4.267V471.04C128 468.48 17.067 356.694 17.067 219.307c0-2.56 1.707-4.267 4.267-4.267s4.267 1.707 4.267 4.267c0 133.973 109.227 243.2 243.2 243.2 52.907 0 103.253-16.213 145.067-47.787 1.707-1.707 4.267-.853 5.973.853 1.707 1.707.853 4.267-.853 5.973-42.667 31.573-93.013 48.64-145.92 49.493v29.867c-.001 2.561-1.708 4.268-4.268 4.268zm0-68.267c-.853 0-1.707 0-2.56-.853-21.333-13.653-72.533-45.227-52.907-89.6 19.627-45.227 3.413-58.88-4.267-66.56l-1.707-1.707c-1.707-1.707-3.413-2.56-5.973-4.267-6.827-4.267-17.067-10.24-10.24-29.867 3.413-9.387 7.68-13.653 11.093-17.92 5.973-5.973 10.24-11.093 10.24-31.573 0-11.093-6.827-16.213-11.947-18.773-10.24-4.267-23.893-2.56-29.013 2.56-3.413 2.56-2.56 5.973-2.56 7.68 7.68 23.893-7.68 55.467-38.4 78.507-14.507 11.093-23.893 3.413-27.307-.853-11.093-13.653-11.947-46.08 0-57.173l.853-.853c-1.707-2.56-20.48-6.827-43.52-5.973-.853 6.827-.853 13.653-.853 20.48 0 96.427 64.853 180.053 158.72 203.093 2.56.853 3.413 2.56 3.413 5.12-.853 2.56-2.56 3.413-5.12 3.413C119.467 407.893 51.2 320.853 51.2 220.16c0-9.387.853-17.067 1.707-25.6 0-1.707 1.707-3.413 4.267-3.413.853 0 49.493-1.707 55.467 11.093.853 1.707 1.707 5.973-2.56 9.387-8.533 8.533-7.68 35.84.853 46.08 2.56 2.56 6.827 5.973 16.213-.853 28.16-20.48 41.813-48.64 34.987-69.12-1.707-5.973-.853-11.947 4.267-16.213 8.533-7.68 25.6-9.387 38.4-4.267 11.093 5.12 17.067 14.507 17.067 26.453 0 24.747-6.827 31.573-12.8 37.547-3.413 3.413-6.827 7.68-9.387 15.36-4.267 13.653 0 16.213 6.827 19.627l7.68 5.12 1.707 1.707c9.387 8.533 28.16 26.453 6.827 76.8-13.653 32.427 16.213 58.027 48.64 78.507 114.347-.853 208.213-93.867 208.213-209.067 0-9.387-.853-19.627-1.707-29.013 0-2.56 1.707-4.267 3.413-5.12 2.56 0 4.267 1.707 5.12 3.413 1.707 10.24 1.707 20.48 1.707 29.867C486.4 339.627 389.12 436.907 268.8 436.907zm2.56-44.373c-6.827 0-12.8-2.56-17.92-6.827-3.413-3.413-4.267-8.533-3.413-14.507 2.56-10.24 12.8-21.333 21.333-23.04 5.12-1.707 8.533.853 9.387 1.707 8.533 8.533 17.067 25.6 7.68 35.84-4.267 4.267-10.24 6.827-17.067 6.827zm3.413-36.694c-1.707 0-8.533 3.413-12.8 11.093-2.56 4.267-5.12 10.24-2.56 12.8 5.973 5.973 17.92 5.973 23.04 0 5.12-5.119-.853-17.066-7.68-23.893.854 0 .854 0 0 0zm89.6-54.613c-7.68 0-14.507-1.707-17.92-5.973-6.827-6.827-21.333-14.507-35.84-21.333-8.533-4.267-9.387-11.093-7.68-16.213 3.413-7.68 14.507-11.093 25.6-5.973 4.267 1.707 6.827 0 13.653-8.533 5.12-6.827 11.947-14.507 21.333-14.507.853 0 4.267-.853 7.68-1.707 12.8-3.413 34.133-9.387 46.933 3.413 3.413 3.413 5.12 6.827 5.12 11.093 0 6.827-5.12 11.947-11.093 17.92-5.973 5.12-11.947 11.947-14.507 19.627-3.413 11.093-11.947 17.92-23.893 21.333-2.559.853-5.972.853-9.386.853zm-45.226-42.667c-4.267 0-6.827 1.707-7.68 3.413-.853 1.707 1.707 3.413 3.413 5.12 14.507 7.68 29.867 15.36 37.547 23.04 2.56 2.56 10.24 4.267 19.627 2.56 5.12-.853 14.507-5.12 17.92-15.36 3.413-10.24 11.093-17.92 17.067-23.04 4.267-4.267 8.533-8.533 8.533-11.093 0-1.707-.853-3.413-2.56-5.12-9.387-9.387-26.453-4.267-38.4-.853-4.267 1.707-7.68 2.56-10.24 2.56-5.973 0-10.24 5.12-14.507 11.093-5.973 6.827-12.8 16.213-23.893 10.24-2.561-2.56-4.267-2.56-6.827-2.56zm-7.68-71.68c-10.24 0-17.067-13.653-23.893-27.307-3.413-6.827-6.827-13.653-11.093-20.48-5.12-7.68-5.12-16.213-.853-24.747 8.533-15.36 30.72-26.453 40.96-26.453 5.12 0 10.24-10.24 10.24-40.107 0-.853-1.707-3.413-3.413-5.973-3.413-5.973-9.387-14.507-7.68-27.307-15.36-3.413-31.573-5.12-47.787-5.12-92.16 0-174.933 62.293-200.533 150.187-.853 2.56-3.413 3.413-5.12 2.56-2.56-.853-3.413-3.413-2.56-5.12C86.187 64.853 172.373 0 268.8 0c17.92 0 35.84 2.56 53.76 6.827 2.56.853 3.413 2.56 3.413 5.12-2.56 11.947 1.707 18.773 5.973 24.747 2.56 3.413 4.267 6.827 4.267 10.24 0 32.427-5.973 48.64-18.773 48.64-8.533 0-27.307 9.387-34.133 21.333-3.413 5.973-2.56 11.093.853 16.213 4.267 6.827 8.533 14.507 11.947 20.48 8.533 17.067 13.653 24.747 19.627 22.187 5.973-3.413 12.8-16.213 17.92-27.307 7.68-14.507 12.8-24.747 20.48-24.747 17.92.853 25.6 16.213 31.573 29.013 3.413 7.68 6.827 14.507 11.093 17.067 7.68 4.267 46.08 0 74.24-10.24C453.12 98.986 407.894 48.64 349.013 24.747c-2.56-.853-3.413-3.413-2.56-5.973.853-2.56 3.413-3.413 5.973-2.56 62.293 25.6 110.08 79.36 128 144.213.853 1.707-.853 4.267-2.56 5.12-27.307 11.947-72.533 17.92-84.48 11.947-6.827-3.413-11.093-11.947-15.36-20.48-5.973-11.947-11.093-23.04-23.893-23.893-2.56.853-8.533 12.8-12.8 20.48-6.827 12.8-13.653 26.453-22.187 30.72-3.413 1.706-5.119 2.559-7.679 2.559z" fill="#51565f"/></svg><svg viewBox="0 0 512 512" width="512" height="512" id="rain" x="512" xmlns="http://www.w3.org/2000/svg"><circle cx="256" cy="256" r="256" fill="#0074a3"/><path d="M512 256c0-5.62-.201-11.191-.558-16.721l-99.021-99.021L82.278 250l56.996 56.996-14.999 19.032 32.266 32.266-11.435 16.002 31.616 31.616-10.255 16.652 89.435 89.435.099.001C397.385 512 512 397.385 512 256z" fill="#005c83"/><path d="M368.528 239.977c32.482 0 58.814-28.104 58.814-60.586 0-30.317-22.941-55.269-52.41-58.461-9.707-19.126-29.548-32.241-52.464-32.241-30.849 0-56.132 23.755-58.599 53.967a50.306 50.306 0 0 0-10.651-1.145c-27.68 0-50.119 22.439-50.119 50.119s22.439 48.347 50.119 48.347h115.31z" fill="#fff"/><path d="M374.933 120.93c-9.707-19.126-29.548-32.241-52.464-32.241-.269 0-.534.016-.802.019v151.268h46.862c32.482 0 58.814-28.104 58.814-60.586 0-30.316-22.942-55.267-52.41-58.46z" fill="#e0e0e0"/><path d="M267.871 272.47c38.814 0 70.28-33.582 70.28-72.397 0-36.227-27.414-66.043-62.627-69.858-11.599-22.854-35.308-38.526-62.691-38.526-36.862 0-67.075 28.386-70.023 64.488a60.104 60.104 0 0 0-12.728-1.369c-33.076 0-59.889 26.813-59.889 59.889s26.813 57.772 59.889 57.772h137.789v.001z" fill="#b9eaff"/><path d="M275.524 130.215C263.948 107.408 240.312 91.757 213 91.692V272.47h54.871c38.815 0 70.28-33.582 70.28-72.397 0-36.228-27.414-66.043-62.627-69.858z" fill="#35ccff"/><g fill="#fff"><path d="M124.271 326.022L110.13 311.88l24.442-24.441 14.142 14.142zM208.664 326.031l-14.142-14.142 24.441-24.441 14.142 14.142z"/></g><g fill="#e0e0e0"><path d="M293.04 326.027l-14.142-14.142 24.441-24.441 14.142 14.142zM377.452 326.03l-14.142-14.143 24.441-24.441 14.142 14.142z"/></g><g fill="#fff"><path d="M145.118 374.296l-14.142-14.142 24.442-24.441 14.142 14.142zM229.491 374.295l-14.142-14.142 24.442-24.441 14.142 14.142z"/></g><path fill="#e0e0e0" d="M313.876 374.287l-14.142-14.142 24.442-24.441 14.142 14.142z"/><g fill="#fff"><path d="M166.457 422.562l-14.142-14.142 24.442-24.442 14.142 14.142zM250.852 422.565l-14.142-14.142 24.442-24.443 14.142 14.142z"/></g><path fill="#e0e0e0" d="M335.208 422.564l-14.142-14.142 24.442-24.442 14.142 14.142z"/></svg><svg viewBox="0 0 85.236 85.236" width="85.24" height="85.24" id="star" x="1024" y="406.02" xmlns="http://www.w3.org/2000/svg"><path fill="#ffc847" d="M42.618 85.236l9.402-28.935h30.424L57.83 38.418l9.402-28.935-24.614 17.883L18.005 9.483l9.401 28.935L2.792 56.301h30.424z" opacity=".4"/><path fill="#ffc847" d="M42.618 0l9.402 28.935h30.424L57.83 46.818l9.402 28.935L42.618 57.87 18.005 75.753l9.401-28.935L2.792 28.935h30.424z"/></svg><svg viewBox="0 0 406.02 406.02" width="406.02" height="406.02" id="storm" x="1024" xmlns="http://www.w3.org/2000/svg"><path fill="#f7cf52" d="M306.79 196.3l-31.53 53.93-17.36 29.7h37.31l-105.5 126.09 39.88-106.79h-38.6l16.48-48.82 18.26-54.11z"/><path d="M347.16 126.42c24.32 9.03 41.66 32.45 41.66 59.92 0 35.28-28.61 63.89-63.89 63.89h-49.67l31.53-53.93h-81.06l-18.26 54.11-.52-.18H97.06c-44.11 0-79.86-35.76-79.86-79.87 0-38.15 26.75-70.04 62.51-77.97-.01-.52-.02-1.04-.02-1.57C79.69 40.66 120.35 0 170.51 0c43.22 0 79.38 30.2 88.56 70.65a58.972 58.972 0 0 1 28.91-7.53c32.76 0 59.33 26.56 59.33 59.32 0 1.34-.06 2.67-.15 3.98z" fill="#1ea6c6"/></svg><svg viewBox="0 0 60 60" width="512" height="512" id="testimonials" y="512" xmlns="http://www.w3.org/2000/svg"><g fill="#496282"><path d="M54.139 40.246l-7.777-1.089-3.472-6.78c-.342-.668-1.438-.668-1.779 0l-3.472 6.78-7.777 1.089a.999.999 0 0 0-.545 1.719l5.605 5.268-1.322 7.425a1.002 1.002 0 0 0 1.437 1.067L42 52.196l6.964 3.528a.998.998 0 0 0 1.437-1.067l-1.321-7.426 5.605-5.268a1 1 0 0 0-.546-1.717zm-6.824 5.9a1 1 0 0 0-.3.903l1.064 5.986-5.628-2.852a1.002 1.002 0 0 0-.904 0l-5.628 2.852 1.064-5.986a.997.997 0 0 0-.3-.903l-4.479-4.208 6.225-.872a.998.998 0 0 0 .751-.534L42 35.027l2.818 5.504c.148.29.429.489.751.534l6.225.872-4.479 4.209z"/><path d="M42 0H18C8.075 0 0 8.068 0 17.985v14c0 9.59 7.538 17.452 17 17.973v8.344c0 .936.764 1.698 1.703 1.698.449 0 .873-.177 1.195-.498l1.876-1.877a25.906 25.906 0 0 1 9.313-5.969l.596-3.35-8.986-8.444a1.002 1.002 0 0 1 .545-1.719l12.437-1.741 5.432-10.608c.342-.668 1.438-.668 1.779 0l5.432 10.608 10.659 1.492a17.75 17.75 0 0 0 1.02-5.909v-14C60 8.068 51.925 0 42 0z"/></g></svg></svg>