<?xml version="1.0" encoding="iso-8859-1"?>
<!-- Generator: Adobe Illustrator 18.0.0, SVG Export Plug-In . SVG Version: 6.00 Build 0)  -->
<!DOCTYPE svg PUBLIC "-//W3C//DTD SVG 1.1//EN" "http://www.w3.org/Graphics/SVG/1.1/DTD/svg11.dtd">
<svg xmlns="http://www.w3.org/2000/svg" xmlns:xlink="http://www.w3.org/1999/xlink" version="1.1" id="Capa_1" x="0px" y="0px" viewBox="0 0 60 60" style="enable-background:new 0 0 60 60;" xml:space="preserve" width="512px" height="512px">
<g>
	<path d="M54.139,40.246l-7.777-1.089l-3.472-6.78c-0.342-0.668-1.438-0.668-1.779,0l-3.472,6.78l-7.777,1.089   c-0.381,0.054-0.698,0.32-0.814,0.688s-0.012,0.768,0.269,1.031l5.605,5.268L33.6,54.658c-0.066,0.373,0.084,0.752,0.388,0.978   c0.305,0.227,0.712,0.262,1.049,0.089L42,52.196l6.964,3.528c0.143,0.073,0.298,0.108,0.452,0.108c0.211,0,0.421-0.066,0.597-0.197   c0.304-0.226,0.454-0.604,0.388-0.978l-1.321-7.426l5.605-5.268c0.28-0.264,0.385-0.664,0.269-1.031S54.52,40.3,54.139,40.246z    M47.315,46.146c-0.246,0.231-0.359,0.571-0.3,0.903l1.064,5.986l-5.628-2.852c-0.143-0.072-0.297-0.108-0.452-0.108   s-0.31,0.036-0.452,0.108l-5.628,2.852l1.064-5.986c0.06-0.332-0.054-0.672-0.3-0.903l-4.479-4.208l6.225-0.872   c0.322-0.045,0.603-0.244,0.751-0.534L42,35.027l2.818,5.504c0.148,0.29,0.429,0.489,0.751,0.534l6.225,0.872L47.315,46.146z" fill="#496282"/>
	<path d="M42,0H18C8.075,0,0,8.068,0,17.985v14c0,9.59,7.538,17.452,17,17.973v8.344C17,59.238,17.764,60,18.703,60   c0.449,0,0.873-0.177,1.195-0.498l1.876-1.877c2.667-2.667,5.835-4.674,9.313-5.969l0.596-3.35l-8.986-8.444   c-0.28-0.264-0.385-0.664-0.269-1.031s0.434-0.634,0.814-0.688l12.437-1.741l5.432-10.608c0.342-0.668,1.438-0.668,1.779,0   l5.432,10.608l10.659,1.492c0.67-1.906,1.02-3.886,1.02-5.909v-14C60,8.068,51.925,0,42,0z" fill="#496282"/>
</g>
<g>
</g>
<g>
</g>
<g>
</g>
<g>
</g>
<g>
</g>
<g>
</g>
<g>
</g>
<g>
</g>
<g>
</g>
<g>
</g>
<g>
</g>
<g>
</g>
<g>
</g>
<g>
</g>
<g>
</g>
</svg>
