<?xml version="1.0" encoding="UTF-8" standalone="no"?>
<!-- Created with Inkscape (http://www.inkscape.org/) -->

<svg
   xmlns:dc="http://purl.org/dc/elements/1.1/"
   xmlns:cc="http://creativecommons.org/ns#"
   xmlns:rdf="http://www.w3.org/1999/02/22-rdf-syntax-ns#"
   xmlns:svg="http://www.w3.org/2000/svg"
   xmlns="http://www.w3.org/2000/svg"
   xmlns:sodipodi="http://sodipodi.sourceforge.net/DTD/sodipodi-0.dtd"
   xmlns:inkscape="http://www.inkscape.org/namespaces/inkscape"
   width="640"
   height="640"
   id="svg2"
   version="1.1"
   inkscape:version="0.47 r22583"
   sodipodi:docname="MeteoSet_Precipitation-Rain-3.svg">
  <defs
     id="defs4">
    <inkscape:perspective
       sodipodi:type="inkscape:persp3d"
       inkscape:vp_x="0 : 526.18109 : 1"
       inkscape:vp_y="0 : 1000 : 0"
       inkscape:vp_z="744.09448 : 526.18109 : 1"
       inkscape:persp3d-origin="372.04724 : 350.78739 : 1"
       id="perspective10" />
    <inkscape:perspective
       id="perspective6047"
       inkscape:persp3d-origin="0.5 : 0.33333333 : 1"
       inkscape:vp_z="1 : 0.5 : 1"
       inkscape:vp_y="0 : 1000 : 0"
       inkscape:vp_x="0 : 0.5 : 1"
       sodipodi:type="inkscape:persp3d" />
  </defs>
  <sodipodi:namedview
     id="base"
     pagecolor="#ffffff"
     bordercolor="#666666"
     borderopacity="1.0"
     inkscape:pageopacity="0.0"
     inkscape:pageshadow="2"
     inkscape:zoom="0.8265625"
     inkscape:cx="320"
     inkscape:cy="320"
     inkscape:document-units="px"
     inkscape:current-layer="layer1"
     showgrid="false"
     inkscape:window-width="1366"
     inkscape:window-height="749"
     inkscape:window-x="-4"
     inkscape:window-y="-4"
     inkscape:window-maximized="1" />
  <metadata
     id="metadata7">
    <rdf:RDF>
      <cc:Work
         rdf:about="">
        <dc:format>image/svg+xml</dc:format>
        <dc:type
           rdf:resource="http://purl.org/dc/dcmitype/StillImage" />
        <dc:title></dc:title>
      </cc:Work>
    </rdf:RDF>
  </metadata>
  <g
     inkscape:label="Ebene 1"
     inkscape:groupmode="layer"
     id="layer1"
     transform="translate(0,-412.36218)">
    <g
       id="g6609">
      <path
         sodipodi:nodetypes="cccc"
         id="path4775-1"
         d="m 161.21279,604.56419 c 4.08427,27.32883 -15.48756,27.99529 -33.17679,56.57475 0,13.03473 10.56117,23.5959 23.5959,23.5959 40.91387,-3.55659 22.78976,-58.22619 9.58089,-80.17065 z"
         style="fill:#5599ff;fill-opacity:1;stroke:#aaccff;stroke-width:10;stroke-linecap:round;stroke-linejoin:round;stroke-miterlimit:4;stroke-opacity:1;stroke-dasharray:none;stroke-dashoffset:0" />
      <path
         style="fill:#5599ff;fill-opacity:1;stroke:#aaccff;stroke-width:10;stroke-linecap:round;stroke-linejoin:round;stroke-miterlimit:4;stroke-opacity:1;stroke-dasharray:none;stroke-dashoffset:0"
         d="m 111.60977,657.7967 c 4.08427,27.32883 -15.487565,27.99529 -33.176795,56.57475 0,13.03473 10.56117,23.5959 23.595905,23.5959 40.91387,-3.55659 22.78976,-58.22619 9.58089,-80.17065 z"
         id="path6571"
         sodipodi:nodetypes="cccc" />
      <path
         sodipodi:nodetypes="cccc"
         id="path6573"
         d="m 279.77612,614.24282 c 4.08427,27.32883 -15.48756,27.99529 -33.17679,56.57475 0,13.03473 10.56117,23.5959 23.5959,23.5959 40.91387,-3.55659 22.78976,-58.22619 9.58089,-80.17065 z"
         style="fill:#5599ff;fill-opacity:1;stroke:#aaccff;stroke-width:10;stroke-linecap:round;stroke-linejoin:round;stroke-miterlimit:4;stroke-opacity:1;stroke-dasharray:none;stroke-dashoffset:0" />
      <path
         style="fill:#5599ff;fill-opacity:1;stroke:#aaccff;stroke-width:10;stroke-linecap:round;stroke-linejoin:round;stroke-miterlimit:4;stroke-opacity:1;stroke-dasharray:none;stroke-dashoffset:0"
         d="m 207.18633,692.88176 c 4.08427,27.32883 -15.48756,27.99529 -33.17679,56.57475 0,13.03473 10.56117,23.5959 23.5959,23.5959 40.91387,-3.55659 22.78976,-58.22619 9.58089,-80.17065 z"
         id="path6575"
         sodipodi:nodetypes="cccc" />
      <path
         sodipodi:nodetypes="cccc"
         id="path6577"
         d="m 121.28841,748.53393 c 4.08427,27.32883 -15.48756,27.99529 -33.176791,56.57475 0,13.03473 10.56117,23.5959 23.595901,23.5959 40.91387,-3.55659 22.78976,-58.22619 9.58089,-80.17065 z"
         style="fill:#5599ff;fill-opacity:1;stroke:#aaccff;stroke-width:10;stroke-linecap:round;stroke-linejoin:round;stroke-miterlimit:4;stroke-opacity:1;stroke-dasharray:none;stroke-dashoffset:0" />
      <path
         style="fill:#5599ff;fill-opacity:1;stroke:#aaccff;stroke-width:10;stroke-linecap:round;stroke-linejoin:round;stroke-miterlimit:4;stroke-opacity:1;stroke-dasharray:none;stroke-dashoffset:0"
         d="m 181.7799,819.91389 c 4.08427,27.32883 -15.48756,27.99529 -33.17679,56.57475 0,13.03473 10.56117,23.5959 23.5959,23.5959 40.91387,-3.55659 22.78976,-58.22619 9.58089,-80.17065 z"
         id="path6579"
         sodipodi:nodetypes="cccc" />
      <path
         sodipodi:nodetypes="cccc"
         id="path6581"
         d="m 166.05211,917.91011 c 4.08427,27.32883 -15.48756,27.99529 -33.17679,56.57475 0,13.03473 10.56117,23.5959 23.5959,23.5959 40.91387,-3.55659 22.78976,-58.22619 9.58089,-80.17065 z"
         style="fill:#5599ff;fill-opacity:1;stroke:#aaccff;stroke-width:10;stroke-linecap:round;stroke-linejoin:round;stroke-miterlimit:4;stroke-opacity:1;stroke-dasharray:none;stroke-dashoffset:0" />
      <path
         style="fill:#5599ff;fill-opacity:1;stroke:#aaccff;stroke-width:10;stroke-linecap:round;stroke-linejoin:round;stroke-miterlimit:4;stroke-opacity:1;stroke-dasharray:none;stroke-dashoffset:0"
         d="m 277.35646,848.94981 c 4.08427,27.32883 -15.48756,27.99529 -33.17679,56.57475 0,13.03473 10.56117,23.5959 23.5959,23.5959 40.91387,-3.55659 22.78976,-58.22619 9.58089,-80.17065 z"
         id="path6583"
         sodipodi:nodetypes="cccc" />
      <path
         sodipodi:nodetypes="cccc"
         id="path6585"
         d="m 268.88765,752.16342 c 4.08427,27.32883 -15.48756,27.99529 -33.17679,56.57475 0,13.03473 10.56117,23.5959 23.5959,23.5959 40.91387,-3.55659 22.78976,-58.22619 9.58089,-80.17065 z"
         style="fill:#5599ff;fill-opacity:1;stroke:#aaccff;stroke-width:10;stroke-linecap:round;stroke-linejoin:round;stroke-miterlimit:4;stroke-opacity:1;stroke-dasharray:none;stroke-dashoffset:0" />
      <path
         style="fill:#5599ff;fill-opacity:1;stroke:#aaccff;stroke-width:10;stroke-linecap:round;stroke-linejoin:round;stroke-miterlimit:4;stroke-opacity:1;stroke-dasharray:none;stroke-dashoffset:0"
         d="m 346.31676,706.18989 c 4.08427,27.32883 -15.48756,27.99529 -33.17679,56.57475 0,13.03473 10.56117,23.5959 23.5959,23.5959 40.91387,-3.55659 22.78976,-58.22619 9.58089,-80.17065 z"
         id="path6587"
         sodipodi:nodetypes="cccc" />
      <path
         sodipodi:nodetypes="cccc"
         id="path6589"
         d="m 398.33944,651.74755 c 4.08427,27.32883 -15.48756,27.99529 -33.17679,56.57475 0,13.03473 10.56117,23.5959 23.5959,23.5959 40.91387,-3.55659 22.78976,-58.22619 9.58089,-80.17065 z"
         style="fill:#5599ff;fill-opacity:1;stroke:#aaccff;stroke-width:10;stroke-linecap:round;stroke-linejoin:round;stroke-miterlimit:4;stroke-opacity:1;stroke-dasharray:none;stroke-dashoffset:0" />
      <path
         style="fill:#5599ff;fill-opacity:1;stroke:#aaccff;stroke-width:10;stroke-linecap:round;stroke-linejoin:round;stroke-miterlimit:4;stroke-opacity:1;stroke-dasharray:none;stroke-dashoffset:0"
         d="m 556.82715,615.45265 c 4.08427,27.32883 -15.48756,27.99529 -33.17679,56.57475 0,13.03473 10.56117,23.5959 23.5959,23.5959 40.91387,-3.55659 22.78976,-58.22619 9.58089,-80.17065 z"
         id="path6591"
         sodipodi:nodetypes="cccc" />
      <path
         sodipodi:nodetypes="cccc"
         id="path6593"
         d="m 473.34889,608.19367 c 4.08427,27.32883 -15.48756,27.99529 -33.17679,56.57475 0,13.03473 10.56117,23.5959 23.5959,23.5959 40.91387,-3.55659 22.78976,-58.22619 9.58089,-80.17065 z"
         style="fill:#5599ff;fill-opacity:1;stroke:#aaccff;stroke-width:10;stroke-linecap:round;stroke-linejoin:round;stroke-miterlimit:4;stroke-opacity:1;stroke-dasharray:none;stroke-dashoffset:0" />
      <path
         sodipodi:nodetypes="cccc"
         id="path6595"
         d="m 445.5228,721.91768 c 4.08427,27.32883 -15.48756,27.99529 -33.17679,56.57475 0,13.03473 10.56117,23.5959 23.5959,23.5959 40.91387,-3.55659 22.78976,-58.22619 9.58089,-80.17065 z"
         style="fill:#5599ff;fill-opacity:1;stroke:#aaccff;stroke-width:10;stroke-linecap:round;stroke-linejoin:round;stroke-miterlimit:4;stroke-opacity:1;stroke-dasharray:none;stroke-dashoffset:0" />
      <path
         style="fill:#5599ff;fill-opacity:1;stroke:#aaccff;stroke-width:10;stroke-linecap:round;stroke-linejoin:round;stroke-miterlimit:4;stroke-opacity:1;stroke-dasharray:none;stroke-dashoffset:0"
         d="m 378.98216,792.08781 c 4.08427,27.32883 -15.48756,27.99529 -33.17679,56.57475 0,13.03473 10.56117,23.5959 23.5959,23.5959 40.91387,-3.55659 22.78976,-58.22619 9.58089,-80.17065 z"
         id="path6597"
         sodipodi:nodetypes="cccc" />
      <path
         sodipodi:nodetypes="cccc"
         id="path6599"
         d="m 363.25437,905.81182 c 4.08427,27.32883 -15.48756,27.99529 -33.17679,56.57475 0,13.03473 10.56117,23.5959 23.5959,23.5959 40.91387,-3.55659 22.78976,-58.22619 9.58089,-80.17065 z"
         style="fill:#5599ff;fill-opacity:1;stroke:#aaccff;stroke-width:10;stroke-linecap:round;stroke-linejoin:round;stroke-miterlimit:4;stroke-opacity:1;stroke-dasharray:none;stroke-dashoffset:0" />
      <path
         style="fill:#5599ff;fill-opacity:1;stroke:#aaccff;stroke-width:10;stroke-linecap:round;stroke-linejoin:round;stroke-miterlimit:4;stroke-opacity:1;stroke-dasharray:none;stroke-dashoffset:0"
         d="m 452.78178,869.51692 c 4.08427,27.32883 -15.48756,27.99529 -33.17679,56.57475 0,13.03473 10.56117,23.5959 23.5959,23.5959 40.91387,-3.55659 22.78976,-58.22619 9.58089,-80.17065 z"
         id="path6601"
         sodipodi:nodetypes="cccc" />
      <path
         sodipodi:nodetypes="cccc"
         id="path6603"
         d="m 518.11259,813.86475 c 4.08427,27.32883 -15.48756,27.99529 -33.17679,56.57475 0,13.03473 10.56117,23.5959 23.5959,23.5959 40.91387,-3.55659 22.78976,-58.22619 9.58089,-80.17065 z"
         style="fill:#5599ff;fill-opacity:1;stroke:#aaccff;stroke-width:10;stroke-linecap:round;stroke-linejoin:round;stroke-miterlimit:4;stroke-opacity:1;stroke-dasharray:none;stroke-dashoffset:0" />
      <path
         style="fill:#5599ff;fill-opacity:1;stroke:#aaccff;stroke-width:10;stroke-linecap:round;stroke-linejoin:round;stroke-miterlimit:4;stroke-opacity:1;stroke-dasharray:none;stroke-dashoffset:0"
         d="m 562.8763,720.70785 c 4.08427,27.32883 -15.48756,27.99529 -33.17679,56.57475 0,13.03473 10.56117,23.5959 23.5959,23.5959 40.91387,-3.55659 22.78976,-58.22619 9.58089,-80.17065 z"
         id="path6605"
         sodipodi:nodetypes="cccc" />
      <path
         sodipodi:nodetypes="cccc"
         id="path6607"
         d="m 549.56817,908.23148 c 4.08427,27.32883 -15.48756,27.99529 -33.17679,56.57475 0,13.03473 10.56117,23.5959 23.5959,23.5959 40.91387,-3.55659 22.78976,-58.22619 9.58089,-80.17065 z"
         style="fill:#5599ff;fill-opacity:1;stroke:#aaccff;stroke-width:10;stroke-linecap:round;stroke-linejoin:round;stroke-miterlimit:4;stroke-opacity:1;stroke-dasharray:none;stroke-dashoffset:0" />
    </g>
  </g>
</svg>
