<?xml version="1.0" encoding="iso-8859-1"?>
<!-- Generator: Adobe Illustrator 19.0.0, SVG Export Plug-In . SVG Version: 6.00 Build 0)  -->
<svg version="1.1" id="Capa_1" xmlns="http://www.w3.org/2000/svg" xmlns:xlink="http://www.w3.org/1999/xlink" x="0px" y="0px"
	 viewBox="0 0 512 512" style="enable-background:new 0 0 512 512;" xml:space="preserve">
<circle style="fill:#0074A3;" cx="256" cy="256" r="256"/>
<path style="fill:#005C83;" d="M512,256c0-5.62-0.201-11.191-0.558-16.721l-99.021-99.021L82.278,250l56.996,56.996l-14.999,19.032
	l32.266,32.266l-11.435,16.002l31.616,31.616l-10.255,16.652l89.435,89.435c0.033,0,0.066,0.001,0.099,0.001
	C397.385,512,512,397.385,512,256z"/>
<path style="fill:#FFFFFF;" d="M368.528,239.977c32.482,0,58.814-28.104,58.814-60.586c0-30.317-22.941-55.269-52.41-58.461
	c-9.707-19.126-29.548-32.241-52.464-32.241c-30.849,0-56.132,23.755-58.599,53.967c-3.434-0.743-6.995-1.145-10.651-1.145
	c-27.68,0-50.119,22.439-50.119,50.119s22.439,48.347,50.119,48.347H368.528z"/>
<path style="fill:#E0E0E0;" d="M374.933,120.93c-9.707-19.126-29.548-32.241-52.464-32.241c-0.269,0-0.534,0.016-0.802,0.019
	v151.268h46.862c32.482,0,58.814-28.104,58.814-60.586C427.343,149.074,404.401,124.123,374.933,120.93z"/>
<path style="fill:#B9EAFF;" d="M267.871,272.47c38.814,0,70.28-33.582,70.28-72.397c0-36.227-27.414-66.043-62.627-69.858
	c-11.599-22.854-35.308-38.526-62.691-38.526c-36.862,0-67.075,28.386-70.023,64.488c-4.103-0.888-8.359-1.369-12.728-1.369
	c-33.076,0-59.889,26.813-59.889,59.889s26.813,57.772,59.889,57.772h137.789V272.47z"/>
<path style="fill:#35CCFF;" d="M275.524,130.215C263.948,107.408,240.312,91.757,213,91.692V272.47h54.871
	c38.815,0,70.28-33.582,70.28-72.397C338.151,163.845,310.737,134.03,275.524,130.215z"/>
<g>
	
		<rect x="119.422" y="289.445" transform="matrix(-0.7071 -0.7071 0.7071 -0.7071 4.0478 615.1323)" style="fill:#FFFFFF;" width="20" height="34.566"/>
	
		<rect x="203.814" y="289.453" transform="matrix(-0.7071 -0.7071 0.7071 -0.7071 148.1085 674.8204)" style="fill:#FFFFFF;" width="20" height="34.566"/>
</g>
<g>
	
		<rect x="288.189" y="289.448" transform="matrix(-0.7071 -0.7071 0.7071 -0.7071 292.1493 734.4743)" style="fill:#E0E0E0;" width="20" height="34.566"/>
	
		<rect x="372.602" y="289.45" transform="matrix(-0.7071 -0.7071 0.7071 -0.7071 436.2483 794.1664)" style="fill:#E0E0E0;" width="20" height="34.566"/>
</g>
<g>
	
		<rect x="140.269" y="337.719" transform="matrix(-0.7071 -0.7071 0.7071 -0.7071 5.5016 712.2816)" style="fill:#FFFFFF;" width="20" height="34.566"/>
	
		<rect x="224.641" y="337.717" transform="matrix(-0.7071 -0.7071 0.7071 -0.7071 149.5352 771.9386)" style="fill:#FFFFFF;" width="20" height="34.566"/>
</g>
<rect x="309.027" y="337.709" transform="matrix(-0.7071 -0.7071 0.7071 -0.7071 293.5952 831.5944)" style="fill:#E0E0E0;" width="20" height="34.566"/>
<g>
	
		<rect x="161.608" y="385.983" transform="matrix(-0.7071 -0.7071 0.7071 -0.7071 7.8015 809.7631)" style="fill:#FFFFFF;" width="20" height="34.566"/>
	
		<rect x="246.003" y="385.985" transform="matrix(-0.7071 -0.7071 0.7071 -0.7071 151.8706 869.4434)" style="fill:#FFFFFF;" width="20" height="34.567"/>
</g>
<rect x="330.358" y="385.984" transform="matrix(-0.7071 -0.7071 0.7071 -0.7071 295.8752 929.0895)" style="fill:#E0E0E0;" width="20" height="34.566"/>
<g>
</g>
<g>
</g>
<g>
</g>
<g>
</g>
<g>
</g>
<g>
</g>
<g>
</g>
<g>
</g>
<g>
</g>
<g>
</g>
<g>
</g>
<g>
</g>
<g>
</g>
<g>
</g>
<g>
</g>
</svg>
